<svg version="1.1" id="Lager_1" xmlns="http://www.w3.org/2000/svg" x="0" y="0" viewBox="0 0 640 640" style="enable-background:new 0 0 640 640" xml:space="preserve"><style>.st0{fill:#e7e9ea}</style><path class="st0" d="M151.5 66.9v176.2c0 49.7 15.2 96 42.7 130.5 14.9 18.7 32.9 33.3 53.6 43.4 5.4 2.6 10.9 5 16.5 6.9v-35.6c0-15-6.3-29.2-17-39.7-26.9-26.2-39.6-66.7-39.6-105.5V66.9c0-15.5-12.5-28-28-28h-.2c-15.4.1-28 12.6-28 28zM392.2 417c20.6-10.2 38.7-24.8 53.6-43.4 27.6-34.4 42.7-80.8 42.7-130.5V67c0-15.5-12.5-28-28-28h-.2c-15.5 0-28 12.5-28 28v176.2c0 38.8-12.7 79.3-39.5 105.5-10.7 10.5-17 24.7-17 39.7v36.8l16.4-8.2zM348.3 236.5c0-15.6-12.6-28.2-28.2-28.2s-28.2 12.6-28.2 28.2v336.4c0 15.6 12.6 28.2 28.2 28.2s28.2-12.6 28.2-28.2V236.5z"/></svg>