<?xml version="1.0" standalone="no"?>
<!DOCTYPE svg PUBLIC "-//W3C//DTD SVG 20010904//EN"
 "http://www.w3.org/TR/2001/REC-SVG-20010904/DTD/svg10.dtd">
<svg version="1.0" xmlns="http://www.w3.org/2000/svg"
 width="260.000000pt" height="260.000000pt" viewBox="0 0 260.000000 260.000000"
 preserveAspectRatio="xMidYMid meet">
<metadata>
Created by potrace 1.11, written by Peter Selinger 2001-2013
</metadata>
<g transform="translate(0.000000,260.000000) scale(0.100000,-0.100000)"
fill="#000000" stroke="none">
<path d="M15 2048 c-3 -7 -4 -346 -3 -753 l3 -740 184 -3 c103 -1 189 2 194 7
5 5 9 230 9 537 0 509 0 530 19 561 31 51 82 77 147 75 66 -1 98 -21 127 -78
19 -37 20 -62 23 -559 1 -286 4 -526 7 -533 3 -10 47 -12 192 -10 l188 3 5
537 5 536 31 39 c39 48 78 67 133 65 58 -2 99 -28 125 -77 20 -39 21 -54 24
-560 1 -286 5 -526 7 -533 4 -10 47 -12 192 -10 l188 3 2 520 c1 286 4 531 7
545 14 62 105 120 178 113 53 -5 94 -34 115 -81 15 -33 17 -94 20 -557 1 -286
5 -525 8 -532 3 -10 57 -13 225 -13 l220 0 0 26 c0 14 -9 39 -21 55 -11 16
-25 43 -30 61 -5 17 -9 234 -10 482 -1 391 -3 462 -19 536 -47 225 -163 339
-354 346 -144 5 -244 -33 -342 -131 l-62 -61 -18 30 c-33 57 -77 96 -143 129
-62 30 -72 32 -171 31 -84 0 -117 -5 -163 -23 -70 -27 -131 -72 -173 -129
l-32 -41 -26 44 c-54 92 -151 146 -271 151 -131 5 -233 -31 -320 -112 l-44
-42 -3 76 -3 77 -183 3 c-140 2 -184 0 -187 -10z"/>
</g>
</svg>
