<?xml version="1.0" encoding="UTF-8"?>
<svg width="151px" height="89px" viewBox="0 0 151 89" version="1.1" xmlns="http://www.w3.org/2000/svg" xmlns:xlink="http://www.w3.org/1999/xlink">
    <!-- Generator: Sketch 48.2 (47327) - http://www.bohemiancoding.com/sketch -->
    <title>m</title>
    <desc>Created with Sketch.</desc>
    <defs></defs>
    <g id="Page-1" stroke="none" stroke-width="1" fill="none" fill-rule="evenodd">
        <path d="M100.781378,11.6659445 C105.765917,4.37358589 113.5252,0 122.365005,0 C137.493876,0 145.244643,10.4675304 145.617537,31.4029052 C145.617537,31.4029052 145.617535,56.5684435 145.617535,72.3826782 C145.617535,73.3946475 145.516095,79.4021096 146.49602,81.417407 C146.861358,82.1687557 148.717042,84.5347439 149.070842,85.0023981 C149.666018,85.7891044 150.576029,87.2133778 150.576029,87.2133778 C150.878331,87.6787361 150.681711,88.0559836 150.12262,88.0559836 L125.003967,88.0559836 C123.899553,88.0559836 123.004249,87.1663274 123.004249,86.0582408 L123.004249,32.8412062 C123.004249,27.8337629 122.311741,24.2646813 120.926704,22.1338543 C119.541666,20.0030274 117.197791,18.9376299 113.89501,18.9376299 C109.962442,18.9376299 106.463499,21.5637963 104.326496,26.124441 C104.47364,27.804979 104.563623,29.5666173 104.596445,31.4093559 L104.596445,86.062762 C104.596445,87.1671505 103.709977,88.0624343 102.589667,88.0624343 L83.9899356,88.0624343 C82.8816225,88.0624343 81.9831572,87.1727782 81.9831572,86.0646915 L81.9831572,32.8476569 C81.9831572,27.8402136 81.2906488,24.271132 79.9056113,22.140305 C78.5205737,20.0094781 76.1766993,18.9440806 72.8739175,18.9440806 C68.6655342,18.9440806 65.5226116,21.5276695 63.4450553,26.6949249 L63.6048666,30.3335434 L63.6048666,86.0585106 C63.6048666,87.1652471 62.7183989,88.0624343 61.5980881,88.0624343 L42.998357,88.0624343 C41.8900439,88.0624343 40.9915786,87.1753531 40.9915786,86.0704737 L40.9915786,33.0074682 C40.9915786,28.0532955 40.3257051,24.4708964 38.9939383,22.2601635 C37.6621714,20.0494305 35.291662,18.9440806 31.8823389,18.9440806 C27.9935797,18.9440806 24.903927,21.0482406 22.613288,25.2566239 L22.613288,86.0615132 C22.613288,87.1665914 21.7268203,88.0624343 20.6065095,88.0624343 L2.00677846,88.0624343 C0.898465319,88.0624343 0,87.1622308 0,86.0578153 L0,2.01106973 C0,0.903949219 0.895812437,0.00645071341 1.99369659,0.00645071341 L19.8205351,0.00645071341 C20.9216234,0.00645071341 21.8142317,0.908529823 21.8142318,2.00487914 L21.8142319,9.59512406 C26.8749459,3.2026432 33.5603152,0.00645071341 41.8705403,0.00645071341 C50.5003895,0.00645071341 56.5997901,3.89515157 60.1689253,11.67267 C65.123098,3.89515157 72.1813564,0.00645071341 81.3439123,0.00645071341 C90.5624558,0.00645071341 97.0415936,3.89292496 100.781378,11.6659445 Z" id="m" fill="#24292E"></path>
    </g>
</svg>