<?xml version="1.0" encoding="UTF-8"?>
<svg width="55px" height="32px" viewBox="0 0 55 32" version="1.1" xmlns="http://www.w3.org/2000/svg" xmlns:xlink="http://www.w3.org/1999/xlink">
    <!-- Generator: Sketch 48.2 (47327) - http://www.bohemiancoding.com/sketch -->
    <title>m</title>
    <desc>Created with Sketch.</desc>
    <defs></defs>
    <g id="Misc" stroke="none" stroke-width="1" fill="none" fill-rule="evenodd" transform="translate(-51.000000, -44.000000)">
        <g id="Logo" transform="translate(51.000000, 44.000000)" fill="#FFFFFF">
            <path d="M36.6087812,4.23764804 C38.4194121,1.58870271 41.2379676,0 44.4490218,0 C49.9445762,0 52.760038,3.80232476 52.8954918,11.4070884 C52.8954918,11.4070884 52.895491,20.5484565 52.895491,26.2929688 C52.895491,26.6605661 52.8586429,28.8427734 53.2146,29.5748291 C53.3473089,29.8477561 54.0213851,30.7072001 54.1499027,30.8770752 C54.3661,31.1628458 54.3426813,31.1490895 54.3426813,31.1490895 C54.6479901,31.6114617 54.4565976,31.9862885 53.8975075,31.9862885 L46.674888,31.9862885 C45.5738195,31.9862885 44.6812272,31.0985962 44.6812272,29.9898457 L44.6812272,11.9295504 C44.6812272,10.1105993 44.4296739,8.81413237 43.9265597,8.04011063 C43.4234456,7.26608889 42.5720345,6.87908382 41.3723008,6.87908382 C39.9437976,6.87908382 38.6728086,7.83303734 37.8965434,9.4896891 C37.9499933,10.1001436 37.9826795,10.7400577 37.9946022,11.4094316 L37.9946022,29.9967128 C37.9946022,31.0968192 37.099895,31.9886317 35.985167,31.9886317 L31.7897727,31.9886317 C30.6799923,31.9886317 29.7803376,31.1009394 29.7803376,29.9921889 L29.7803376,11.9318936 C29.7803376,10.1129426 29.5287843,8.81647559 29.0256701,8.04245384 C28.522556,7.2684321 27.6711449,6.88142704 26.4714112,6.88142704 C24.9427182,6.88142704 23.8010533,7.81991432 23.0463821,9.69691704 L23.1044334,11.0186433 L23.1044334,29.9969207 C23.1044334,31.0969123 22.2097262,31.9886317 21.0949982,31.9886317 L16.899604,31.9886317 C15.7898236,31.9886317 14.8901688,31.0904783 14.8901688,29.9979673 L14.8901688,11.989945 C14.8901688,10.1903444 14.6482906,8.88903991 14.164527,8.08599235 C13.6807634,7.28294479 12.8196772,6.88142704 11.5812424,6.88142704 C10.1686527,6.88142704 9.04633802,7.64576204 8.21426465,9.17445498 L8.21426465,29.9840208 C8.21426465,31.0911368 7.31955745,31.9886317 6.20482945,31.9886317 L2.00943519,31.9886317 C0.89965478,31.9886317 0,31.099751 0,29.9877461 L0,2.00322882 C0,0.898170215 0.893581208,0.00234321816 1.99956178,0.00234321816 L5.92444612,0.00234321816 C7.02877359,0.00234321816 7.92400791,0.899322973 7.92400792,2.00828396 L7.92400795,3.48542363 C9.76230958,1.16335841 12.1907664,0.00234321816 15.2094511,0.00234321816 C18.3442392,0.00234321816 20.5598432,1.41491171 21.8563296,4.24009106 C23.6559302,1.41491171 26.2198387,0.00234321816 29.5481322,0.00234321816 C32.8967632,0.00234321816 35.2503065,1.41410289 36.6087812,4.23764804 Z" id="m"></path>
        </g>
    </g>
</svg>