<svg xmlns="http://www.w3.org/2000/svg" width="800" height="800" xml:space="preserve"><g><path style="stroke:#f0313b;stroke-width:8;stroke-linecap:butt;stroke-dashoffset:0;stroke-linejoin:round;stroke-miterlimit:4;fill:#f0313b;fill-rule:nonzero;opacity:1" vector-effect="non-scaling-stroke" d="M-50-50V50H50V-50z" transform="matrix(6.74 0 0 6.74 399.75 399.75)"/><path style="stroke:none;stroke-width:1;stroke-dasharray:none;stroke-linecap:butt;stroke-dashoffset:0;stroke-linejoin:miter;stroke-miterlimit:4;fill:#fff;fill-rule:nonzero;opacity:1" vector-effect="non-scaling-stroke" transform="matrix(7.56 0 0 7.56 61.99 88.58)" d="M13.52 41.112q0-12.311.005-24.622c.004-2.877.164-3.039 3.01-3.042q21.527-.02 43.054-.013c2.061 0 2.364.321 2.397 2.421.024 1.492-.015 2.986.04 4.476a6.778 6.778 0 0 0 6.696 6.92c1.658.114 3.328.04 4.993.075 1.797.039 2.049.305 2.122 2.14.011.286.012.573.012.86q.004 17.649.004 35.297c-.001 3.212-.05 3.25-3.29 3.26q-3.788.013-7.577-.011c-2.96-.021-3.03-.09-3.032-2.981q-.006-16.874-.003-33.748c0-.401.01-.803-.003-1.205a3.329 3.329 0 0 0-3.548-3.567 48.22 48.22 0 0 0-3.272.01 3.348 3.348 0 0 0-3.482 3.477c-.035.63-.021 1.262-.022 1.893l-.01 18.423c0 .69.018 1.38-.023 2.066-.075 1.255-.443 1.713-1.652 1.728q-5.251.067-10.504-.007c-1.216-.019-1.582-.487-1.668-1.727-.035-.514-.018-1.033-.019-1.55l-.022-19.628a13.12 13.12 0 0 0-.05-1.719 3.251 3.251 0 0 0-3.102-2.936 33.399 33.399 0 0 0-3.958.003 3.157 3.157 0 0 0-3.157 3.21c-.058 1.26-.033 2.525-.034 3.788q-.014 15.668-.023 31.336c0 .46.018.92-.015 1.377-.09 1.245-.457 1.713-1.673 1.73q-5.251.067-10.504-.02c-1.239-.02-1.583-.456-1.68-1.716-.045-.57-.026-1.147-.026-1.721q-.002-12.139 0-24.278z"/></g></svg>