<?xml version="1.0" encoding="UTF-8" standalone="no"?>
<svg width="138px" height="349px" viewBox="0 0 138 349" version="1.1" xmlns="http://www.w3.org/2000/svg" xmlns:xlink="http://www.w3.org/1999/xlink" xmlns:sketch="http://www.bohemiancoding.com/sketch/ns">
    <!-- Generator: Sketch 3.4.2 (15857) - http://www.bohemiancoding.com/sketch -->
    <title>murc</title>
    <desc>Created with Sketch.</desc>
    <defs>
        <path id="path-1" d="M9.02782837,1.23319111 C8.40128824,1.83141331 7.85293802,2.78620563 7.99986548,3.70296214 C9.08628176,3.77289191 10.1952703,3.24771716 10.8716432,2.57336099 C11.5472222,1.89747715 12.0032418,0.959769768 11.8788487,0.0243071241 C10.9056717,0.0569805069 9.72601738,0.558834937 9.02782837,1.23319111 Z"></path>
        <path id="path-2" d="M11.8141759,3.8951477 C10.3048876,3.76943077 8.869188,4.62615569 8.10316863,4.62615569 C7.33911768,4.62615569 6.15711755,3.91373898 4.90538981,3.93245483 C3.26031817,3.95257203 1.743459,4.71936123 0.896393603,5.93140697 C-0.812841055,8.37128704 0.458684473,11.9859057 2.12457597,13.9647095 C2.93859458,14.9332313 3.90925423,16.0212106 5.18369453,15.9823464 C6.4109684,15.9420497 6.87506197,15.3290356 8.35887434,15.3290356 C9.84268672,15.3290356 10.2596896,15.9823464 11.5585459,15.9622915 C12.8791684,15.942112 13.7158996,14.9751473 14.5242779,14.0035737 C15.4590895,12.8798755 15.8439919,11.7919585 15.8666667,11.7360912 C15.8373296,11.7250984 13.2914016,10.9227459 13.2658878,8.51089294 C13.2413961,6.49163675 15.2675847,5.52323957 15.3581322,5.47512645 C14.2196266,4.10460326 12.4461911,3.9168531 11.8141759,3.8951477 Z"></path>
    </defs>
    <g id="Page-1" stroke="none" stroke-width="1" fill="none" fill-rule="evenodd" sketch:type="MSPage">
        <g id="graphics" sketch:type="MSArtboardGroup" transform="translate(-178.000000, -228.000000)">
            <g id="murc" sketch:type="MSLayerGroup" transform="translate(178.000000, 225.000000)">
                <g id="Marc" transform="translate(72.500000, 176.500000) scale(-1, 1) translate(-72.500000, -176.500000) translate(6.000000, 0.000000)">
                    <g id="Pants" transform="translate(0.537594, 173.295198)" sketch:type="MSShapeGroup">
                        <g id="Shadow" transform="translate(0.462406, 146.704806)" fill="#000000" fill-opacity="0.170000002">
                            <ellipse id="Oval-29" cx="58" cy="16" rx="58" ry="16"></ellipse>
                        </g>
                        <g id="Shoes" transform="translate(12.000000, 139.704802)" fill="#444444">
                            <path d="M1.34737366,16.5086442 C1.34737366,12.6439769 4.48082717,9.44641788 8.34576595,9.36670381 L33.4179405,8.84959214 L36.3850127,10.4768276 C37.3571986,11.0100048 37.7130781,12.2192309 37.160548,13.1935504 C37.160548,13.1935504 31.6892697,23.243513 29.4259183,23.9474763 C27.1625668,24.6514396 5.33038308,23.1719244 5.33038308,23.1719244 C3.13062772,23.0312832 1.34737366,21.1231585 1.34737366,18.9131204 L1.34737366,16.5086442 Z" id="Rectangle-56" transform="translate(19.384430, 16.493501) rotate(-32.000000) translate(-19.384430, -16.493501) "></path>
                            <path d="M57.3473737,16.5086442 C57.3473737,12.6439769 60.4808272,9.44641788 64.345766,9.36670381 L89.4179405,8.84959214 L92.3850127,10.4768276 C93.3571986,11.0100048 93.7130781,12.2192309 93.160548,13.1935504 C93.160548,13.1935504 87.6892697,23.243513 85.4259183,23.9474763 C83.1625668,24.6514396 61.3303831,23.1719244 61.3303831,23.1719244 C59.1306277,23.0312832 57.3473737,21.1231585 57.3473737,18.9131204 L57.3473737,16.5086442 Z" id="Rectangle-56" transform="translate(75.384430, 16.493501) scale(-1, 1) rotate(-32.000000) translate(-75.384430, -16.493501) "></path>
                        </g>
                        <g id="Legs" transform="translate(27.434783, 0.188931)">
                            <path d="M46.0307446,51.533974 L62.0276287,51.533974 L62.0276287,0.188931277 L1,0.188931277 L1,51.533974 L17.496464,51.533974 C17.4375224,50.9213886 17.4072556,50.2987616 17.4072556,49.6679383 C17.4072556,40.4751377 23.8348119,33.0229004 31.7636043,33.0229004 C39.6923967,33.0229004 46.1199529,40.4751377 46.1199529,49.6679383 C46.1199529,50.2987616 46.0896862,50.9213886 46.0307446,51.533974 Z" id="Top" fill="#4DA5D1"></path>
                            <rect id="Rectangle-840" fill="#4DA5D1" x="46" y="47" width="16.127629" height="99"></rect>
                            <rect id="Rectangle-181" fill="#84CEF3" x="46" y="139" width="16.1599998" height="10"></rect>
                            <rect id="Rectangle-840-Copy" fill="#4DA5D1" x="0.927628281" y="47" width="16.5300007" height="100.040001"></rect>
                            <rect id="Rectangle-181" fill="#84CEF3" x="0.877634766" y="138.995881" width="16.6000004" height="10"></rect>
                        </g>
                    </g>
                    <g id="Body" transform="translate(25.594203, 78.430834)" fill="#6B7D97" sketch:type="MSShapeGroup">
                        <g id="Jacket">
                            <path d="M7.9233752,68.4168224 C7.9233752,55.8257504 5.41118893,40.2411929 5.41118893,40.2411929 C3.71226707,27.3503775 12.1349592,12.9805171 24.4589129,8.8462712 C24.4589129,8.8462712 23.863694,7.68897686 30.8628279,7.68897686 C35.9178034,7.68897686 41.5686709,8.45891284 41.5686709,8.45891284 C54.509437,9.74945529 59.8166474,1.61792388 59.4526717,0.973462981 L59.4526717,0.973462981 C71.2590411,0.973462981 66.1444914,68.817741 64.9999972,91.6551036 C64.7894973,95.8554412 69.4222818,102.894701 66.9819112,104 C64.5415406,105.105299 2.49173454,103.138502 0.793492385,101.573072 C-0.904749774,100.007643 7.9233752,84.1984147 7.9233752,68.4168224 Z" id="Rectangle-3"></path>
                        </g>
                    </g>
                    <g id="Arms" transform="translate(8.594203, 74.150386)" sketch:type="MSShapeGroup">
                        <g id="Left">
                            <path d="M18.5972032,31.8212937 C15.3936227,37.0685944 13.4543377,48.4034069 14.5242053,60.0192909 C15.6075518,71.7815198 20.1602455,83.9097331 21.6133168,90.1247596 C22.0799579,92.1206607 19.2261098,99.101078 19.2261098,99.101078 C19.2261098,99.101078 25.4458373,102.840824 28.0889027,104.161625 C30.7319682,105.482426 39.7865532,108.431333 39.6069682,108.271 C35.3743533,104.492141 13.996149,62.7702213 13.9390002,59.2343788 C13.8659288,54.7133953 20.8757809,41.728892 21.6133166,40.28516 C21.8696896,39.7833079 23.8220568,55.641117 23.8220568,55.349369 C23.8220568,55.057621 30.561427,37.98095 33.9966192,31.8212937 C36.5622639,27.2208264 41.6755897,13.2378874 43.9985723,10.5166067 L53.9047191,3.54812233 C40.0307678,2.70592548 29.3770475,14.1644616 18.5972032,31.8212937 Z" id="Shadow" fill-opacity="0.14990942" fill="#000000"></path>
                            <path d="M53.7623948,0.640803073 C40.3761363,-0.171789132 28.5831214,7.37123132 18.6772706,20.6518504 C11.2383446,30.6251021 5.06292089,43.6957215 1.17570872,56.3724358 C-0.253899317,61.0345771 1.76223133,66.6957622 5.99703706,73.9574171 C9.68042169,80.2735199 14.8725167,87.1196275 20.7310414,93.2026674 C36.0981923,109.158731 53.5381923,117.936321 70.5287555,114.600722 L67.640261,99.8875764 C56.7567423,102.024236 43.7294171,95.4675551 31.530829,82.8014825 C26.4952411,77.5729167 22.0271881,71.6815046 18.9494387,66.4039179 C17.6107625,64.108416 16.6242293,62.0716296 16.0775282,60.5365228 C15.8704963,59.9551884 15.7528194,59.5176386 15.717321,59.2842605 C15.756456,59.5415466 15.7476933,59.995941 15.5108856,60.7682022 C23.429864,34.9433639 38.5022438,14.7360602 52.8538794,15.6072542 L53.7623948,0.640803073 L53.7623948,0.640803073 Z" id="Shape" fill="#F9DEBB"></path>
                            <circle id="Oval-84" fill="#F9DEBB" cx="68.2057849" cy="107.5" r="7.5"></circle>
                            <path d="M43.5552112,17.9145559 C43.5552112,17.9145559 32.6607477,27.5245774 29.4983264,31.9138235 C26.8002333,35.6586106 22.5806018,46.6984914 22.5806018,46.6984914 L4.98099241,45.3559621 C4.98099241,45.3559621 9.33353148,32.6752981 16.5893909,23.1042532 C19.726451,18.966226 23.1605612,14.8496264 26.2344104,11.9543508 C27.9290888,10.3581239 32.3169853,6.40073914 36.4587756,4.28760277 C42.1804878,1.36839217 47.7290393,0.448979728 47.7290393,0.448979728 L43.5552112,17.9145559 Z" id="Path-155" fill="#6B7D97"></path>
                        </g>
                    </g>
                    <g id="Shirt-collar-details" transform="translate(51.967670, 74.430834)"></g>
                    <g id="Right" transform="translate(69.594203, 9.150386)" sketch:type="MSShapeGroup">
                        <path d="M35.3454365,73.6285611 C41.8026248,71.1584013 47.6700429,68.5659984 52.0363696,66.2137243 C54.5502404,64.8594249 56.5976205,63.572808 58.1754724,62.3067379 C61.0646757,59.9884381 62.8481097,57.6424168 62.8481097,53.9668019 C62.8481097,50.4142581 60.7680348,46.5644894 56.4750256,40.2731663 C53.1370873,35.3814813 48.7054223,29.6130598 44.0822204,24.1631796 C31.6231244,9.47626274 21.6422021,0.672462865 13.7169868,0.6748801 L13.72156,15.6688802 C13.3630282,15.6689895 13.2201761,15.6386026 13.2392733,15.6457587 C13.5456605,15.7605685 13.9964174,15.9870319 14.5553505,16.3257119 C15.9094904,17.1462399 17.6181004,18.4526691 19.5737508,20.1776755 C23.4214448,23.5715831 27.995079,28.3776816 32.6481861,33.8628145 C36.9444346,38.9272786 41.0587543,44.2826316 44.0897533,48.7245027 C45.524392,50.8269385 46.7055372,52.054173 44.9249624,53.0134233 C41.1965959,55.0220088 35.8908311,57.3662562 29.9881806,59.6242807 C24.1773368,61.8471851 21.3490333,78.9828036 35.3454365,73.6285611 Z" id="Shape" fill="#F9DEBB"></path>
                        <path d="M0.532017805,65.9860891 C0.532017805,65.9860891 15.4668609,64.4706244 20.8252307,62.7377981 C24.9359365,61.4084499 34.2021838,57.829595 34.2021838,57.829595 L36.7032033,76.2646356 C36.8512286,77.3557315 36.08759,78.3194113 34.9790661,78.4187325 L3.93509398,81.2002004 L0.532017805,65.9860891 Z" id="Path-154" fill="#6B7D97"></path>
                    </g>
                    <g id="Neck" transform="translate(50.000000, 41.000000)" sketch:type="MSShapeGroup">
                        <path d="M14.2279998,0.776329831 L14.2279998,38.8335309" id="Path-5" stroke="#83735E" stroke-width="16.3592004"></path>
                        <ellipse id="Oval-1" fill="#F9DEBB" cx="14.2253846" cy="40.0920556" rx="8.22538457" ry="8.09482833"></ellipse>
                        <ellipse id="Oval-1-Copy-2" fill="#F9DEBB" cx="13.2501563" cy="43.6485344" rx="13.2501563" ry="13.2177006"></ellipse>
                    </g>
                    <g id="Head-2-Copy" transform="translate(29.532392, 0.169847)" sketch:type="MSShapeGroup">
                        <g id="Neck" transform="translate(33.301499, 44.518707)" stroke="#F9DEBB" stroke-width="18.9939995">
                            <path d="M2.82325235,0.819124526 L0.634858459,42.5761675" id="Path-5"></path>
                        </g>
                        <path d="M5.73616276,51.223708 C6.6124585,51.6381697 20.2572448,56.5711923 22.4549135,56.0879658 C23.0350628,55.9604018 22.1895936,49.4004666 22.454913,49.4004666 C27.7016181,49.4004666 23.4676081,44.9052856 23.4676081,38.8301533 C23.4676081,32.7550211 17.9926333,23.4883565 12.7459282,23.4883565 C10.1115761,23.4883565 15.1073392,21.6103189 13.6931942,24.7056416 C12.2908585,27.7751158 2.26926286,49.5839679 5.73616276,51.223708 Z" id="Oval-330" fill="#6C6C6C"></path>
                        <g id="Head" transform="translate(35.381445, 41.520542) rotate(-7.000000) translate(-35.381445, -41.520542) translate(5.381445, 3.520542)">
                            <g id="Base" transform="translate(0.695652, 4.889313)">
                                <path d="M33.6796618,68.5662812 C33.6796618,68.5662812 30.1331219,71.2313288 24.6936102,70.0369538 C19.2540985,68.8425788 15.1004553,64.5192183 15.1004553,64.5192183 L16.371735,57.1203412 L35.1349741,60.6053446 L33.6796618,68.5662812 Z" id="Path-87" fill="#E8C69F"></path>
                                <path d="M6.60863924,22.0188356 C6.60863924,8.96917775 17.1351937,-0.574521985 30.1155399,0.701911961 L34.5050404,1.13355741 L34.5050404,1.13355741 C45.1886958,-0.381479798 53.8495098,8.96491293 53.8495098,22.0188356 L53.8495098,42.797543 C53.8495098,55.8472008 43.277149,66.4260387 30.2290745,66.4260387 L30.2290745,66.4260387 C17.1838683,66.4260387 6.60863924,55.8514656 6.60863924,42.797543 L6.60863924,22.0188356 Z" id="Rectangle-1" fill="#F9DEBB"></path>
                                <g id="Ears-Copy" transform="translate(0.488051, 21.953505)">
                                    <ellipse id="Oval-163" fill="#E8C69F" transform="translate(4.842807, 11.579326) rotate(-5.000000) translate(-4.842807, -11.579326) " cx="4.84280682" cy="11.5793259" rx="3.41920937" ry="9.69849029"></ellipse>
                                    <ellipse id="Oval-163-Copy" fill="#F9DEBB" transform="translate(54.125412, 9.914583) rotate(-1.000000) translate(-54.125412, -9.914583) " cx="54.1254121" cy="9.91458331" rx="3.41920937" ry="9.69849029"></ellipse>
                                </g>
                                <path d="M10.6468064,26.3947962 C10.6468064,26.3947962 10.3112545,42.4383197 10.8287599,48.2413096 C11.072897,50.9789143 13.0154603,55.8639213 15.4196685,59.0767569 C18.1117388,62.674274 21.1728146,64.6419425 21.1728146,64.6419425 C21.1728146,64.6419425 17.5985726,63.2145135 14.4599293,60.4175429 C11.321286,57.6205723 10.2557747,56.1672683 8.21834507,51.2939582 C6.18091547,46.4206481 6.52462411,41.1262584 6.52462411,41.1262584 L6.59956179,22.5418482 L10.6468064,26.3947962 Z" id="Path-156" fill="#E8C69F"></path>
                            </g>
                            <g id="Face" transform="translate(15.955041, 28.663948)">
                                <g id="Mouth" transform="translate(8.004846, 28.920767)" stroke="#D57981" stroke-width="2">
                                    <path d="M0.345256788,0.0660123361 C0.345256788,0.0660123361 11.864788,3.05038734 15.364788,3.05038734" id="Path-529"></path>
                                </g>
                                <g id="Eyes" transform="translate(0.250581, 0.199321)">
                                    <g id="Left" transform="translate(0.670022, 2.473522)">
                                        <path d="M0.977177564,1.87547179 C0.977177564,1.87547179 4.66714239,1.27250582 6.25244075,1.11234845 C8.1703003,0.918593535 11.5071776,1.11234845 11.5071776,1.11234845" id="Line" stroke="#444444" stroke-width="2.5" stroke-linecap="square" transform="translate(6.242178, 1.450853) rotate(-5.000000) translate(-6.242178, -1.450853) "></path>
                                        <ellipse id="Oval-6" fill="#444444" cx="6.53623193" cy="8.61545791" rx="2.97101454" ry="2.97232824"></ellipse>
                                    </g>
                                    <g id="Right" transform="translate(23.452853, 0.949054)">
                                        <path d="M0.282097268,1.81979885 C0.282097268,1.81979885 3.87446421,1.07731784 5.54709729,0.937107064 C7.38446423,0.783087244 10.8120973,0.937107064 10.8120973,0.937107064" id="Line-3" stroke="#444444" stroke-width="2.5" stroke-linecap="square" transform="translate(5.547097, 1.344226) scale(-1, 1) translate(-5.547097, -1.344226) "></path>
                                        <ellipse id="Oval-7" fill="#444444" cx="4.15942034" cy="9.61545791" rx="2.97101454" ry="2.97232824"></ellipse>
                                    </g>
                                </g>
                            </g>
                            <g id="Hair" transform="translate(6.478261, 4.793893)" fill="#F8BF3F">
                                <path d="M6.44651863,5.11671856 C5.19877493,7.49917361 0.735772433,10.6114075 0.736156238,12.7364225 C0.737051048,17.6907167 -0.387111018,29.1331987 3.10122386,29.1331987 C6.58955873,29.1331987 26.5735089,7.81436913 36.841894,10.6651253 C43.6571977,12.5572212 44.5298754,6.79097506 35.2879638,1.69352528 C30.6054031,-0.889178216 19.3060895,0.198566307 16.9156817,1.69352517 C14.103457,3.452288 9.16752658,-0.0788028627 6.44651863,5.11671856 Z" id="Path-82"></path>
                                <path d="M37.8883137,13.1782442 C37.8883137,13.1782442 39.2324567,16.162362 41.7425977,19.6589853 C44.4155902,23.3824606 48.2778156,27.6240001 48.7319551,27.3194981 C49.6125659,26.7290457 48.5086836,11.238232 42.4306365,8.62630431 C36.3525894,6.0143766 31.8370029,8.62630431 31.8370029,8.62630431 L37.8883137,13.1782442 Z" id="Path-83"></path>
                            </g>
                            <g id="Cap" transform="translate(30.129323, 12.885585) rotate(-4.000000) translate(-30.129323, -12.885585) translate(6.129323, 1.885585)">
                                <path d="M35.72016,21.2938931 L47.3511586,21.2938931 L47.3511586,10.7938931 C47.3511586,4.99362822 42.6510717,0.29389313 36.8532207,0.29389313 L11.6490964,0.29389313 C5.8567604,0.29389313 0.913614343,4.98801701 0.620588696,10.7785123 L0.0884621451,21.2938931 L17.7445069,21.2938931 C17.7364245,21.1462099 17.7323334,20.9975298 17.7323334,20.8479473 C17.7323334,16.1535269 21.7617707,12.3479473 26.7323334,12.3479473 C31.7028962,12.3479473 35.7323334,16.1535269 35.7323334,20.8479473 C35.7323334,20.9975298 35.7282423,21.1462099 35.72016,21.2938931 Z" id="Rectangle-1003" fill="#919191"></path>
                                <path d="M17.6943728,19.4765904 C17.8009629,18.8683491 18.3262023,17.747099 18.3262023,17.747099 L35.138447,17.6006375 C35.138447,17.6006375 35.5170185,18.7757921 35.6158487,19.3411532 C35.7356407,20.0264274 35.7943136,21.3525434 35.7943136,21.3525434 L17.6943728,21.3525434 C17.6943728,21.3525434 17.5903531,20.0701639 17.6943728,19.4765904 Z" id="Rectangle-1004" fill="#4E5764"></path>
                            </g>
                        </g>
                    </g>
                </g>
                <g id="Macbook" transform="translate(0.000000, 117.000000)">
                    <path d="M5.14764892,0 L85.8523511,0 C88.8236821,0 91.1211546,2.09975807 90.9841464,4.68528016 L88.2482754,56.3147198 C88.1111567,58.9023286 85.7701471,61 83.000199,61 L7.999801,61 C5.23848716,61 2.88873272,58.9002419 2.75172456,56.3147198 L0.0158535689,4.68528016 C-0.121265173,2.09767138 2.16702688,0 5.14764892,0 Z" id="Rectangle-786" fill="#D6D6D6" sketch:type="MSShapeGroup"></path>
                    <g id="Logo" transform="translate(37.000000, 23.000000)">
                        <g id="Path">
                            <use fill="none" sketch:type="MSShapeGroup" xlink:href="#path-1"></use>
                            <use fill="none" xlink:href="#path-1"></use>
                            <use fill="#FFFFFF" fill-rule="evenodd" xlink:href="#path-1"></use>
                        </g>
                        <g id="Apple-Logo">
                            <use fill="none" sketch:type="MSShapeGroup" xlink:href="#path-2"></use>
                            <use fill="none" xlink:href="#path-2"></use>
                            <use fill="#FFFFFF" fill-rule="evenodd" xlink:href="#path-2"></use>
                        </g>
                    </g>
                </g>
            </g>
        </g>
    </g>
</svg>