<svg version="1" xmlns="http://www.w3.org/2000/svg" width="682.667" height="682.667" viewBox="0 0 512.000000 512.000000"><path d="M.5 100.2c-.3.7-.4 67.7-.3 148.8l.3 147.5 36 .3c19.8.1 36.9 0 38-.2 2-.5 2-1.3 1.9-105.8 0-119.4-.8-108.4 8.5-117.7 6.7-6.5 12.8-9.3 21.6-9.7 18.4-.8 27.3 7.5 31.1 29.1.4 2.2.8 48.6.9 103 0 54.5.4 99.6.8 100.2.6.9 10.3 1.2 38 1l37.2-.2.2-104.4.2-104.3 3.5-6.2c4-7.1 9.3-12.5 15.6-15.7 3.6-1.9 6.1-2.3 13-2.3 18.6-.1 27.2 9.4 29.6 32.3.2 2.5.4 48.3.5 101.7 0 53.3.4 97.6.8 98.2.6.9 9.9 1.2 38.2 1l37.4-.3V290.9l.1-105.7 2.8-4.3c4-6.2 10.6-12.2 16.3-15 6.6-3.3 20.7-3.4 26.8-.2 7 3.7 12.2 11 14.1 19.8.4 2.2 1 4.9 1.2 6 .3 1.1.6 47.2.8 102.5.2 55.3.6 101 .8 101.7.7 1.6 93.6 1.6 93.6-.1 0-.6-2.4-4.3-5.2-8.2-9.3-12.4-9.7-13.2-10.9-18.1-.9-3.4-1.2-28.8-1.4-88.3-.2-75.2-.6-93.9-2.1-103.5-.3-1.7-.7-4.1-.9-5.5-.7-5.1-3.6-16.5-6.1-23.8-8.1-23.3-24.1-39.8-44.4-45.6-9.1-2.5-11-2.8-22.5-3.2-28.8-.8-52.7 10.4-71.9 33.9l-3.9 4.7-3.6-6.1c-6.8-11.6-18.3-21.9-30.1-26.9-10.7-4.5-16.2-5.4-32-5.5-10 0-14.7.4-21 1.8-19 4.3-35.4 15.8-48.6 34.1l-2.2 3-2.2-4.5c-7.7-15.2-19.6-25.7-34.9-31-8-2.8-13.3-3.4-27.6-3.3-10.8.2-14.5.6-21.8 2.8-15.2 4.5-26.7 11.6-37.5 23-3.5 3.7-5.2 4.9-5.3 3.8 0-.9-.1-7.3-.1-14.2 0-6.9-.2-13.3-.4-14.3-.5-1.6-3.1-1.7-36.5-1.7-27.8 0-36.1.3-36.4 1.2z"/></svg>