<svg version="1" xmlns="http://www.w3.org/2000/svg" width="778.667" height="778.667" viewBox="0 0 584.000000 584.000000"><path d="M266 .6c-26.7 3.1-44 6.7-65.5 13.9-26.8 8.9-47.1 18.8-69.2 33.4C69.1 89 25.7 150.5 8 222.4 1.7 248.2.6 258.4.6 292c0 33.6 1.1 43.8 7.5 69.8C34.1 467.4 116.7 550 222.4 576c25.8 6.3 36 7.4 69.6 7.4 33.6 0 43.8-1.1 69.8-7.5C467.4 549.9 550 467.3 576 361.6c6.3-25.8 7.4-36 7.4-69.6 0-33.6-1.1-43.8-7.5-69.8C550 116.6 467.3 34 361.6 8 338 2.2 326.1.8 296.5.5 281.7.3 267.9.4 266 .6zM130.7 166.2c5.8 3.2 7.8 7.2 8.2 17.1l.3 8.7 8.3-7.8c14.3-13.6 28.6-19.2 49-19.4 12.7-.1 20.6 1.6 29.9 6.4 7.6 4 17.2 13.5 21.1 21.1 1.7 3.1 3.2 5.7 3.5 5.7.3-.1 2.1-2.4 4-5.1 8.5-12.3 22.8-22.1 37.7-26 10.1-2.7 27.9-2.9 37.3-.5 14.8 3.8 28.1 13.5 35 25.5 1.9 3.3 3.7 6 4 6 .3 0 2.8-2.8 5.6-6.2 14.5-17.7 33.9-26.9 56.9-26.9 19.1-.1 31.8 4.5 43.3 15.5 12 11.6 18.1 25.3 22.3 50.3.8 4.6 1.4 32.8 1.8 86.4.5 59.9.9 80.2 1.9 82.3.7 1.6 3.2 5.4 5.6 8.6 4.2 5.5 5 7 4.7 9.8-.1 1-7.5 1.3-33.3 1.3-31.2 0-33.5-.1-36.5-2-7.3-4.4-6.7 2-7.3-91l-.5-83.5-2.3-6.8c-3.9-11.6-11-16.7-23.4-16.7-10.2 0-18.8 4.7-25 13.8l-3.1 4.5.2 83.2c.2 57.2-.1 84.5-.8 87.3-.7 2.5-2.6 5.3-5 7.5-4.9 4.4-8.8 5-31.1 4.5-18.1-.3-20.9-1.1-25.4-7.1-2.1-2.8-2.1-3.5-2.7-85.5-.6-89.8-.5-88.7-6.2-98.5-3.8-6.4-10.6-9.7-20.2-9.7-11.8 0-20.3 5.7-26.4 17.7-2.1 4.2-2.1 4.6-2.1 88.1v83.9l-2.2 3.3c-4.9 7.2-5.9 7.5-26.7 7.8-21.3.4-25.5-.3-30.9-5.3l-3.7-3.3-.6-82.9c-.6-90.2-.6-90-6.4-99.9-3.5-6-10.7-9.4-19.5-9.4-11.3 0-19.4 4.3-25.5 13.3l-3.5 5.2v171.2l-2.3 3.3c-4.4 6.7-7.1 7.5-26.7 7.8-20.9.5-26.3-.5-30.9-5.2-1.7-1.8-3.6-4.8-4.1-6.7-1.4-4.6-1.3-227.1 0-231.9 1.2-4.5 6.8-10 11.2-11 1.8-.5 11.4-.8 21.3-.7 15 .2 18.5.5 21.2 1.9z"/></svg>