<?xml version="1.0" standalone="no"?>
<!DOCTYPE svg PUBLIC "-//W3C//DTD SVG 20010904//EN"
 "http://www.w3.org/TR/2001/REC-SVG-20010904/DTD/svg10.dtd">
<svg version="1.0" xmlns="http://www.w3.org/2000/svg"
 width="260.000000pt" height="260.000000pt" viewBox="0 0 260.000000 260.000000"
 preserveAspectRatio="xMidYMid meet">
<metadata>
Created by potrace 1.11, written by Peter Selinger 2001-2013
</metadata>
<g transform="translate(0.000000,260.000000) scale(0.100000,-0.100000)"
fill="#000000" stroke="none">
<path d="M165 1958 c-3 -7 -4 -310 -3 -673 l3 -659 150 -1 c83 -1 159 2 170 6
20 6 20 15 20 481 l0 475 28 36 c47 61 151 75 203 26 46 -43 48 -65 49 -553 1
-447 1 -459 20 -465 16 -6 261 -7 313 -2 9 1 12 103 12 474 l0 472 25 38 c44
64 108 83 180 53 70 -30 70 -26 73 -551 2 -258 7 -474 12 -480 10 -12 307 -14
326 -3 7 5 10 150 10 475 -1 453 0 468 19 497 46 69 121 93 190 61 68 -33 72
-60 72 -578 0 -246 3 -451 7 -454 9 -10 407 -10 412 -1 3 4 -11 29 -30 54 -20
26 -37 59 -37 73 -1 14 -3 204 -4 421 -2 254 -7 418 -14 459 -44 231 -157 334
-360 327 -102 -3 -195 -45 -264 -119 -45 -47 -50 -50 -60 -32 -24 44 -91 104
-140 126 -74 33 -187 35 -275 6 -55 -17 -79 -33 -131 -84 -36 -34 -65 -62 -66
-60 -72 121 -155 168 -290 163 -101 -4 -174 -31 -241 -90 l-51 -45 -1 52 c0
29 0 60 -1 70 -1 15 -16 17 -161 17 -119 0 -162 -3 -165 -12z"/>
</g>
</svg>
